<svg width="35" height="33" viewBox="0 0 35 33" fill="none" xmlns="http://www.w3.org/2000/svg">
<g clip-path="url(#clip0_2_30)">
<path fill-rule="evenodd" clip-rule="evenodd" d="M33.8723 28.3138C33.5378 29.1039 32.7662 30.2164 31.6718 31C31.04 31.4526 30.2857 31.8853 29.2496 32.1708C28.1451 32.4752 26.7846 32.5781 25.0913 32.5781H9.6093C7.9162 32.5781 6.55576 32.4752 5.45114 32.1708C4.41502 31.8853 3.66083 31.4526 3.02888 31C1.93464 30.2163 1.16282 29.1039 0.828381 28.3138C0.154724 26.7219 0.147888 24.9157 0.147888 23.7781V9.37809C0.147888 8.24055 0.154724 6.43434 0.828381 4.84241C1.16282 4.0523 1.93451 2.93982 3.02888 2.15619C3.66069 1.70359 4.41502 1.27095 5.45114 0.985453C6.55562 0.681006 7.91606 0.578125 9.6093 0.578125H25.0915C26.7846 0.578125 28.1451 0.681006 29.2497 0.985453C30.2858 1.27095 31.04 1.70372 31.6719 2.15619C32.7662 2.93994 33.538 4.0523 33.8724 4.84241C34.5461 6.43434 34.553 8.24055 34.553 9.37809V23.7781C34.5527 24.9156 34.546 26.7218 33.8723 28.3138Z" fill="url(#paint0_linear_2_30)"/>
<path d="M19.8456 18.9714C19.3293 18.4648 18.4225 18.14 17.352 18.14C16.2815 18.14 15.3747 18.4648 14.8584 18.9714C14.5891 19.2358 14.4466 19.5068 14.4017 19.8929C14.3148 20.6406 14.3636 21.2843 14.4578 22.3135C14.5475 23.2942 14.7179 24.6021 14.9401 25.9341C15.0984 26.882 15.2269 27.3936 15.3439 27.76C15.5337 28.3537 16.2429 28.873 17.352 28.873C18.461 28.873 19.1703 28.3536 19.3601 27.76C19.477 27.3936 19.6056 26.882 19.7638 25.9341C19.9861 24.6021 20.1564 23.2942 20.2462 22.3135C20.3404 21.2842 20.3892 20.6404 20.3022 19.8929C20.2574 19.507 20.1149 19.2358 19.8456 18.9714ZM14.539 14.4603C14.539 15.9066 15.7996 17.0791 17.3547 17.0791C18.9098 17.0791 20.1704 15.9066 20.1704 14.4603C20.1704 13.0139 18.9098 11.8414 17.3547 11.8414C15.7996 11.8414 14.539 13.0139 14.539 14.4603ZM17.3197 4.12517C10.7346 4.1426 5.33861 9.11154 5.25711 15.2361C5.19094 20.1974 8.59601 24.4413 13.3507 25.9969C13.4661 26.0346 13.5833 25.9455 13.5651 25.833C13.5027 25.4477 13.4439 25.0606 13.39 24.68C13.3708 24.5455 13.2787 24.4295 13.145 24.3752C9.38697 22.8481 6.76276 19.3425 6.80487 15.2818C6.86011 9.9529 11.5387 5.60849 17.2681 5.56538C23.1253 5.52138 27.9054 9.94032 27.9054 15.3781C27.9054 19.3981 25.2927 22.8607 21.5639 24.3756C21.4304 24.4299 21.3388 24.5462 21.3197 24.6807C21.2657 25.0611 21.2069 25.4481 21.1447 25.833C21.1264 25.9455 21.2436 26.0346 21.359 25.997C26.0682 24.4563 29.4535 20.2784 29.4535 15.3782C29.4532 9.16228 24.0069 4.10737 17.3197 4.12517ZM17.1012 9.28767C20.8342 9.15325 23.9172 11.9388 23.9172 15.3815C23.9172 17.1324 23.1196 18.7132 21.8449 19.8264C21.7368 19.9208 21.6786 20.0548 21.687 20.1925C21.7124 20.6113 21.7031 21.0183 21.6731 21.4779C21.6651 21.6003 21.8128 21.6785 21.9217 21.6095C24.0593 20.2508 25.4653 17.9662 25.4653 15.3815C25.4653 11.1259 21.6542 7.68252 17.0398 7.84886C12.7514 8.0035 9.31095 11.292 9.25599 15.2834C9.21988 17.9084 10.6345 20.234 12.7996 21.6097C12.9083 21.6788 13.0555 21.6005 13.0474 21.4781C13.0173 21.0183 13.0082 20.6113 13.0334 20.1925C13.0418 20.0549 12.9839 19.9209 12.8759 19.8267C11.5615 18.6788 10.7542 17.0339 10.8057 15.2179C10.8962 12.0221 13.6664 9.41141 17.1012 9.28767Z" fill="white"/>
</g>
<defs>
<linearGradient id="paint0_linear_2_30" x1="17.3504" y1="0.578125" x2="17.3504" y2="32.5781" gradientUnits="userSpaceOnUse">
<stop stop-color="#F452FF"/>
<stop offset="1" stop-color="#832BC1"/>
</linearGradient>
<clipPath id="clip0_2_30">
<rect width="34.4047" height="32" fill="white" transform="translate(0.147888 0.578125)"/>
</clipPath>
</defs>
</svg>
