<svg width="35" height="33" viewBox="0 0 35 33" fill="none" xmlns="http://www.w3.org/2000/svg">
<g clip-path="url(#clip0_2_33)">
<path d="M34.504 16.5781C34.504 25.467 26.8354 32.5781 17.5521 32.5781C8.26905 32.5781 0.46582 25.467 0.46582 16.5781C0.46582 7.68925 8.13451 0.578125 17.4176 0.578125C26.7008 0.578125 34.504 7.68925 34.504 16.5781Z" fill="url(#paint0_linear_2_33)"/>
<path d="M5.48656 17.6471C5.49313 17.5942 5.53346 17.557 5.58427 17.557C5.63324 17.557 5.67382 17.5942 5.68142 17.6468L5.8925 18.9238L5.68142 20.1791C5.67357 20.2317 5.63349 20.2683 5.58427 20.2683C5.53343 20.2683 5.49313 20.2314 5.48656 20.1786L5.30847 18.9238L5.48656 17.6471Z" fill="white"/>
<path d="M6.48472 16.7669C6.53605 16.7669 6.57769 16.8048 6.58607 16.8596L6.85816 18.9239L6.5858 20.943C6.57744 20.9977 6.53578 21.0357 6.48472 21.0357C6.43287 21.0357 6.39018 20.9966 6.38336 20.9425L6.14398 18.9239L6.38336 16.8596C6.39043 16.806 6.43312 16.7669 6.48472 16.7669Z" fill="white"/>
<path d="M10.1745 15.1279C10.1792 15.0315 10.2604 14.9555 10.3587 14.9555C10.4563 14.9555 10.5372 15.0315 10.543 15.1279L10.7585 18.9257L10.543 21.3803V21.3796C10.5373 21.4758 10.4563 21.5517 10.3587 21.5517C10.2604 21.5517 10.1794 21.476 10.1745 21.3801L9.98389 18.9257L10.1745 15.1279Z" fill="white"/>
<path d="M8.2628 16.4083C8.26884 16.3324 8.33038 16.2756 8.4058 16.2756C8.48044 16.2756 8.54198 16.3324 8.54855 16.4078L8.79263 18.9247L8.54855 21.3593C8.54198 21.4347 8.48044 21.4916 8.4058 21.4916C8.33036 21.4916 8.26855 21.4347 8.2628 21.3593L8.04803 18.9247L8.2628 16.4083Z" fill="white"/>
<path d="M12.568 21.34C12.563 21.4587 12.464 21.5514 12.3423 21.5514C12.2196 21.5514 12.1204 21.4584 12.1165 21.3408L11.9507 18.9266L12.1165 13.8709C12.1205 13.7522 12.2197 13.6593 12.3425 13.6593C12.4643 13.6593 12.5634 13.752 12.5683 13.8706L12.7551 18.9269L12.568 21.34Z" fill="white"/>
<path d="M16.7135 21.2725C16.7104 21.4326 16.5721 21.5629 16.4045 21.5629C16.2368 21.5629 16.0981 21.4326 16.0954 21.2739C16.0954 21.2739 15.9789 18.9303 15.9789 18.9266L16.0954 13.0891C16.098 12.9287 16.2366 12.7984 16.4045 12.7984C16.5721 12.7984 16.7106 12.929 16.7135 13.0889L16.8439 18.9285L16.7135 21.2725Z" fill="white"/>
<path d="M14.6255 21.3022C14.6215 21.4431 14.5039 21.5536 14.358 21.5536C14.2112 21.5536 14.0936 21.4431 14.0904 21.3037L13.949 18.9277L14.0902 13.8345C14.0933 13.6936 14.2109 13.5833 14.3579 13.5833C14.5037 13.5833 14.6212 13.6936 14.6252 13.8345L14.7842 18.9274L14.6255 21.3039V21.3022Z" fill="white"/>
<path d="M9.54205 21.3793C9.53547 21.4656 9.46529 21.5311 9.37856 21.5311C9.29061 21.5311 9.22072 21.4656 9.21489 21.379L9.01245 18.9244L9.21489 16.5902C9.22044 16.5034 9.29061 16.4378 9.37856 16.4378C9.46557 16.4378 9.53575 16.5029 9.54205 16.5891L9.77196 18.9244L9.54205 21.3793Z" fill="white"/>
<path d="M7.56322 21.2844C7.55588 21.3497 7.50455 21.3969 7.44119 21.3969C7.37674 21.3969 7.3254 21.3494 7.31912 21.284L7.0918 18.9242L7.31912 16.475C7.32566 16.4098 7.37698 16.3623 7.44117 16.3623C7.50454 16.3623 7.55586 16.4096 7.56346 16.475L7.82145 18.9242L7.56322 21.2844Z" fill="white"/>
<path d="M15.0884 14.0207C15.0916 13.8684 15.2186 13.7495 15.377 13.7495C15.5352 13.7495 15.6614 13.8684 15.6651 14.0202L15.8097 18.928L15.6651 21.2892V21.2872C15.6614 21.4394 15.5352 21.5581 15.377 21.5581C15.2183 21.5581 15.0916 21.4392 15.0884 21.2889L14.9597 18.9278L15.0884 14.0207Z" fill="white"/>
<path d="M11.552 21.3645C11.5467 21.472 11.4564 21.5564 11.3469 21.5564C11.2364 21.5564 11.1463 21.472 11.1418 21.3655L10.9635 18.9265L11.1416 14.2599C11.1464 14.1524 11.2364 14.0681 11.3469 14.0681C11.4564 14.0681 11.5465 14.1521 11.552 14.2599L11.7531 18.9265L11.552 21.3645Z" fill="white"/>
<path d="M13.5929 21.3259V21.3256C13.5882 21.4545 13.4804 21.5558 13.3465 21.5558C13.2122 21.5558 13.1038 21.4541 13.1001 21.3257L12.9464 18.9266L13.0999 13.7002C13.1034 13.5702 13.2119 13.4686 13.3465 13.4686C13.4804 13.4686 13.5888 13.5704 13.5929 13.7002L13.7658 18.9269L13.5929 21.3246V21.3256C13.5929 21.3253 13.5929 21.3251 13.5929 21.3249V21.3259Z" fill="white"/>
<path d="M25.5074 16.1339C25.8641 15.9928 26.2557 15.9145 26.6661 15.9145C28.3202 15.9145 29.6611 17.1805 29.6611 18.7421C29.6611 20.3036 28.32 21.5695 26.6659 21.5695C26.6123 21.5695 18.3705 21.5656 18.3628 21.5648C18.1839 21.5477 18.0418 21.4036 18.0394 21.2306V12.2575C18.0416 12.0926 18.1018 12.0076 18.3278 11.925C18.9094 11.7127 19.5682 11.5871 20.2438 11.5871C23.0053 11.5871 25.269 13.5859 25.5074 16.1339Z" fill="white"/>
<path d="M17.0967 12.5601C17.0994 12.3889 17.2471 12.2495 17.427 12.2495C17.6064 12.2495 17.754 12.3889 17.7567 12.5597L17.9036 18.9291L17.7567 21.2409V21.2381C17.754 21.4095 17.6064 21.5486 17.427 21.5486C17.2471 21.5486 17.0994 21.4095 17.097 21.2406L16.9615 18.9291L17.0967 12.5601Z" fill="white"/>
</g>
<defs>
<linearGradient id="paint0_linear_2_33" x1="17.4849" y1="0.578125" x2="17.4849" y2="32.5781" gradientUnits="userSpaceOnUse">
<stop stop-color="#FF7602"/>
<stop offset="1" stop-color="#FF3502"/>
</linearGradient>
<clipPath id="clip0_2_33">
<rect width="34.4047" height="32" fill="white" transform="translate(0.465576 0.578125)"/>
</clipPath>
</defs>
</svg>
