<svg width="36" height="33" viewBox="0 0 36 33" fill="none" xmlns="http://www.w3.org/2000/svg">
<g clip-path="url(#clip0_2_26)">
<path d="M17.6193 30.5781C25.9324 30.5781 32.6714 24.3101 32.6714 16.5781C32.6714 8.84614 25.9324 2.57812 17.6193 2.57812C9.3063 2.57812 2.56726 8.84614 2.56726 16.5781C2.56726 24.3101 9.3063 30.5781 17.6193 30.5781Z" fill="white"/>
<path d="M18.186 0.578125C8.9659 0.578125 1.49207 7.74146 1.49207 16.5781C1.49207 25.4147 8.9659 32.5781 18.186 32.5781C27.4063 32.5781 34.8801 25.4147 34.8801 16.5781C34.8801 7.74146 27.4063 0.578125 18.186 0.578125ZM23.3575 16.7261C23.3575 14.0708 21.1114 11.9178 18.3404 11.9178C15.57 11.9178 13.3239 14.0704 13.3239 16.7261C13.3239 19.3814 15.57 21.534 18.3404 21.534V24.2817C13.9868 24.2817 10.457 20.8991 10.457 16.7261C10.457 12.5532 13.9864 9.17052 18.3404 9.17052C22.6945 9.17052 26.224 12.5532 26.224 16.7261H23.3575ZM28.1948 16.7261C28.1948 11.5102 23.7831 7.28172 18.3404 7.28172C12.8983 7.28172 8.4866 11.5102 8.4866 16.7261C8.4866 21.9419 12.8983 26.1701 18.3404 26.1701V29.3185C11.0843 29.3185 5.20157 23.6805 5.20157 16.7261C5.20157 9.7714 11.0843 4.13372 18.3404 4.13372C25.597 4.13372 31.4795 9.7714 31.4795 16.7261H28.1948Z" fill="#F43E37"/>
</g>
<defs>
<clipPath id="clip0_2_26">
<rect width="34.4047" height="32" fill="white" transform="translate(0.783325 0.578125)"/>
</clipPath>
</defs>
</svg>
