<svg width="36" height="33" viewBox="0 0 36 33" fill="none" xmlns="http://www.w3.org/2000/svg">
<path d="M17.9652 30.5781C26.3154 30.5781 33.0845 24.2821 33.0845 16.5156C33.0845 8.74913 26.3154 2.45312 17.9652 2.45312C9.61508 2.45312 2.84595 8.74913 2.84595 16.5156C2.84595 24.2821 9.61508 30.5781 17.9652 30.5781Z" fill="white"/>
<path fill-rule="evenodd" clip-rule="evenodd" d="M1.54199 16.5156C1.54199 8.07926 8.89496 1.24023 17.9653 1.24023C27.0356 1.24023 34.3886 8.07926 34.3886 16.5156C34.3886 24.952 27.0356 31.791 17.9653 31.791C8.89496 31.791 1.54199 24.952 1.54199 16.5156ZM17.9653 3.66601C10.3354 3.66601 4.15007 9.41899 4.15007 16.5156C4.15007 23.6123 10.3354 29.3652 17.9653 29.3652C25.5952 29.3652 31.7805 23.6123 31.7805 16.5156C31.7805 9.41899 25.5952 3.66601 17.9653 3.66601Z" fill="#363F46"/>
<path d="M9.75704 10.5771C9.75704 10.5771 7.66626 12.7709 7.66626 16.6039C7.66626 20.4369 9.75704 22.5423 9.75704 22.5423" fill="white"/>
<path fill-rule="evenodd" clip-rule="evenodd" d="M10.7381 11.3763C10.7381 11.3763 10.7381 11.3763 10.7381 11.3763C10.7373 11.3772 10.7357 11.379 10.7333 11.3816C10.726 11.3896 10.7118 11.4057 10.6915 11.4297C10.6509 11.4776 10.5863 11.5569 10.5055 11.6663C10.3437 11.8855 10.1185 12.2236 9.8905 12.6719C9.43508 13.5672 8.97038 14.8972 8.97038 16.6039C8.97038 18.3097 9.43451 19.6146 9.88574 20.4825C10.1119 20.9176 10.3349 21.2429 10.4944 21.4522C10.5741 21.5568 10.6375 21.6319 10.677 21.6768C10.6967 21.6993 10.7104 21.7141 10.7171 21.7212C10.7189 21.7232 10.7202 21.7246 10.721 21.7254C11.2034 22.2177 11.1688 22.9807 10.6419 23.4333C10.1129 23.8878 9.28784 23.8574 8.79918 23.3653L9.75712 22.5423C8.79918 23.3653 8.79878 23.3649 8.79837 23.3645L8.79565 23.3617L8.79136 23.3574L8.78053 23.3462C8.77233 23.3377 8.76218 23.3271 8.75021 23.3143C8.72627 23.2887 8.69505 23.2546 8.6576 23.212C8.58275 23.1268 8.48282 23.0075 8.36646 22.8547C8.13393 22.5495 7.83425 22.1089 7.53772 21.5385C6.94356 20.3955 6.3623 18.7312 6.3623 16.6039C6.3623 14.4777 6.94299 12.7943 7.53296 11.6345C7.82763 11.0552 8.12513 10.6053 8.35536 10.2934C8.47059 10.1372 8.56936 10.0152 8.64307 9.92817C8.67994 9.88465 8.7106 9.84985 8.73397 9.8239C8.74566 9.81092 8.75554 9.80014 8.76346 9.79159L8.77388 9.78043L8.77796 9.7761L8.77972 9.77425L8.78052 9.7734C8.7809 9.773 8.78128 9.77261 9.75712 10.5772L8.78128 9.77261C9.25901 9.27134 10.0832 9.22519 10.6221 9.66953C11.1591 10.1123 11.2103 10.8749 10.7381 11.3763Z" fill="#FC7E0F"/>
<path d="M26.4142 10.5771C26.4142 10.5771 28.5049 12.7709 28.5049 16.6039C28.5049 20.4369 26.4142 22.5423 26.4142 22.5423" fill="white"/>
<path fill-rule="evenodd" clip-rule="evenodd" d="M25.5492 9.66952C26.0881 9.22518 26.9123 9.27134 27.39 9.77262L26.4142 10.5772C27.39 9.77262 27.3904 9.77301 27.3908 9.77341L27.3916 9.77426L27.3933 9.77611L27.3974 9.78044L27.4078 9.7916C27.4157 9.80015 27.4256 9.81093 27.4373 9.82391C27.4607 9.84986 27.4913 9.88466 27.5282 9.92818C27.6019 10.0152 27.7007 10.1373 27.8159 10.2934C28.0461 10.6053 28.3436 11.0552 28.6383 11.6345C29.2283 12.7943 29.8089 14.4777 29.8089 16.6039C29.8089 18.7312 29.2277 20.3955 28.6335 21.5385C28.337 22.1089 28.0373 22.5495 27.8048 22.8547C27.6885 23.0075 27.5885 23.1268 27.5137 23.212C27.4762 23.2546 27.445 23.2887 27.4211 23.3143C27.4091 23.3271 27.399 23.3377 27.3908 23.3462L27.3799 23.3574L27.3756 23.3617L27.3738 23.3636L27.3729 23.3645C27.3725 23.3649 27.3721 23.3653 26.4142 22.5423L27.3721 23.3653C26.8835 23.8574 26.0584 23.8878 25.5294 23.4333C25.0025 22.9807 24.9678 22.2177 25.4503 21.7254C25.4506 21.7251 25.451 21.7247 25.4514 21.7242C25.4521 21.7234 25.4531 21.7225 25.4542 21.7213C25.4609 21.7141 25.4746 21.6993 25.4943 21.6768C25.5338 21.6319 25.5972 21.5568 25.6769 21.4522C25.8363 21.2429 26.0593 20.9176 26.2855 20.4826C26.7367 19.6146 27.2009 18.3097 27.2009 16.6039C27.2009 14.8972 26.7362 13.5672 26.2808 12.6719C26.0527 12.2236 25.8275 11.8855 25.6658 11.6663C25.585 11.5568 25.5204 11.4776 25.4798 11.4296C25.4595 11.4057 25.4452 11.3896 25.438 11.3816C25.4356 11.3789 25.434 11.3772 25.4332 11.3763M25.5492 9.66952C25.0122 10.1123 24.9609 10.8749 25.4331 11.3763L25.5492 9.66952Z" fill="#FC7E0F"/>
<path d="M23.0795 13.1406C23.0795 13.1406 24.4878 14.7719 24.4532 16.596C24.41 18.7897 23.0968 19.9951 23.0968 19.9951" fill="white"/>
<path fill-rule="evenodd" clip-rule="evenodd" d="M22.263 12.1949C22.8246 11.7755 23.6454 11.8589 24.0963 12.3812L23.0795 13.1406C24.0963 12.3812 24.096 12.3809 24.0963 12.3812L24.0983 12.3836L24.1009 12.3866L24.1075 12.3944L24.1268 12.4173C24.1421 12.4357 24.1624 12.4606 24.187 12.4913C24.2361 12.5529 24.3025 12.6387 24.3803 12.7461C24.5352 12.9598 24.7389 13.2637 24.9416 13.6343C25.3367 14.3568 25.7796 15.4259 25.757 16.6174C25.7309 17.9415 25.3201 18.9806 24.9066 19.6939C24.7003 20.0496 24.4928 20.3258 24.33 20.5195C24.2485 20.6165 24.1777 20.6934 24.1231 20.7498C24.0959 20.7781 24.0726 20.8013 24.054 20.8193L24.0296 20.8427L24.0202 20.8515L24.0163 20.8552L24.0145 20.8568L24.0136 20.8576C24.0132 20.858 24.0128 20.8584 23.0968 19.9951L24.0128 20.8584C23.5002 21.3289 22.6745 21.3239 22.1686 20.8471C21.6662 20.3736 21.6681 19.6128 22.1704 19.1415C22.1724 19.1395 22.1769 19.135 22.1834 19.1282C22.2009 19.1102 22.233 19.0758 22.2753 19.0255C22.3601 18.9246 22.4836 18.7623 22.611 18.5425C22.8648 18.1048 23.1322 17.4436 23.1494 16.5742C23.1613 15.9418 22.9174 15.2833 22.617 14.7342C22.472 14.469 22.3258 14.2511 22.2177 14.1019C22.164 14.0278 22.1206 13.972 22.0928 13.9372C22.079 13.9198 22.0691 13.9078 22.0638 13.9014L22.0597 13.8965C21.6121 13.3743 21.7027 12.6134 22.263 12.1949ZM22.1794 19.1331C22.1793 19.1332 22.1794 19.1331 22.1794 19.1331V19.1331Z" fill="#FC7E0F"/>
<path d="M13.0231 13.1406C13.0231 13.1406 11.6148 14.7719 11.6494 16.596C11.6927 18.7897 13.0058 19.9951 13.0058 19.9951" fill="white"/>
<path fill-rule="evenodd" clip-rule="evenodd" d="M14.0403 13.8995L14.0414 13.8982L14.0425 13.897C14.0426 13.8969 14.043 13.8964 14.0425 13.897C14.0418 13.8979 14.0411 13.8987 14.0403 13.8995ZM12.9532 16.5742C12.9413 15.9418 13.1852 15.2833 13.4856 14.7342C13.6306 14.469 13.7768 14.2511 13.8849 14.1019C13.9386 14.0278 13.982 13.972 14.0098 13.9372C14.0236 13.9198 14.0335 13.9078 14.0388 13.9014L14.0425 13.897C14.49 13.3748 14.3999 12.6134 13.8396 12.1949C13.278 11.7755 12.4572 11.8589 12.0063 12.3812L13.0049 13.127C12.0063 12.3812 12.0065 12.3809 12.0063 12.3812L12.0043 12.3836L12.0017 12.3866L11.995 12.3944L11.9758 12.4173C11.9605 12.4357 11.9401 12.4606 11.9156 12.4913C11.8665 12.5529 11.8001 12.6387 11.7223 12.7461C11.5674 12.9598 11.3637 13.2637 11.161 13.6343C10.7659 14.3568 10.3229 15.4259 10.3456 16.6174C10.3716 17.9415 10.7825 18.9806 11.196 19.6939C11.4023 20.0496 11.6098 20.3258 11.7726 20.5195C11.8541 20.6165 11.9249 20.6934 11.9794 20.7498C12.0067 20.7781 12.03 20.8013 12.0486 20.8193L12.073 20.8427L12.0823 20.8515L12.0863 20.8552L12.0881 20.8568L12.089 20.8576C12.0894 20.858 12.0898 20.8584 13.0058 19.9951L12.0898 20.8584C12.6024 21.3289 13.4281 21.3239 13.934 20.8471C14.4364 20.3736 14.4344 19.6128 13.9322 19.1415C13.9302 19.1395 13.9257 19.135 13.9191 19.1282C13.9017 19.1102 13.8696 19.0758 13.8273 19.0255C13.7425 18.9246 13.619 18.7623 13.4916 18.5425C13.2378 18.1048 12.9704 17.4436 12.9532 16.5742Z" fill="#FC7E0F"/>
<path d="M17.9634 18.6987C19.2595 18.6987 20.3102 17.7214 20.3102 16.5158C20.3102 15.3103 19.2595 14.333 17.9634 14.333C16.6672 14.333 15.6165 15.3103 15.6165 16.5158C15.6165 17.7214 16.6672 18.6987 17.9634 18.6987Z" fill="#363F46"/>
<path d="M18.36 18.5548L16.6951 18.1386L13.9229 27.7705L15.5877 28.1866L18.36 18.5548Z" fill="#363F46"/>
<path d="M17.7153 18.5421L19.3728 18.1328L22.1304 27.7715L20.4729 28.1808L17.7153 18.5421Z" fill="#363F46"/>
<path d="M16.1752 23.7399L16.7912 23.1533L21.0596 27.021L20.4435 27.6077L16.1752 23.7399Z" fill="#363F46"/>
<path d="M19.7905 23.7607L19.233 23.2354L15.0013 27.1441L15.5587 27.6694L19.7905 23.7607Z" fill="#363F46"/>
</svg>
