<svg width="35" height="33" viewBox="0 0 35 33" fill="none" xmlns="http://www.w3.org/2000/svg">
<path d="M17.3028 0.630859C7.83147 0.630859 0.153076 7.77238 0.153076 16.5817C0.153076 25.3914 7.83147 32.5324 17.3028 32.5324C26.7752 32.5324 34.4527 25.3914 34.4527 16.5817C34.4527 7.77295 26.7752 0.631621 17.3026 0.631621L17.3028 0.630859ZM25.1675 23.6365C24.8604 24.1051 24.201 24.2537 23.6972 23.9661C19.6706 21.6785 14.6016 21.1604 8.63201 22.4289C8.05675 22.5508 7.48333 22.2156 7.35227 21.6804C7.22059 21.1451 7.57959 20.6118 8.15628 20.4899C14.689 19.1011 20.2927 19.6994 24.8133 22.2689C25.3171 22.5565 25.4769 23.168 25.1675 23.6365ZM27.2667 19.2927C26.8796 19.8785 26.0564 20.0632 25.4276 19.7032C20.8178 17.0672 13.7909 16.304 8.33833 17.8434C7.6312 18.0421 6.88432 17.6714 6.6697 17.0148C6.45672 16.3571 6.85544 15.6638 7.56136 15.4638C13.7897 13.7061 21.5326 14.5575 26.8264 17.5832C27.4551 17.9432 27.6537 18.7089 27.2667 19.2929V19.2927ZM27.4469 14.7701C21.9196 11.7165 12.8003 11.4358 7.52307 12.9255C6.67565 13.1645 5.77948 12.7196 5.52268 11.9314C5.26587 11.1428 5.74385 10.3099 6.59188 10.0703C12.6498 8.35981 22.7203 8.69028 29.084 12.204C29.8479 12.6247 30.0977 13.5404 29.6451 14.2484C29.1946 14.9573 28.2075 15.191 27.4477 14.7701H27.4469Z" fill="#1ED760"/>
</svg>
